# xmcd
#
# Track frame offsets: 
#        150
#        28021
#        43899
#        87972
#        99072
#        115249
#        129296
#        141625
#        152214
#        167645
#        182613
#        197495
#        228609
#        239649
#        251918
#        266822
#        282714
#        301251
#
# Disc length: 4227 seconds
#
# Revision: 0
# Processed by: cddbd v1.5.1PL0 Copyright (c) Steve Scherf et al.
# Submitted via: ExactAudioCopy v0.90b4
#
DISCID=08108112
DTITLE=Various Artist - Black Music Explosion [CD2]
DYEAR=2005
DGENRE=Soul
TTITLE0=Jimmy James and The Vagabonds - Now Is The Time
TTITLE1=The Honey Cone - One Monkey Don't Stop No Show
TTITLE2=Lamont Dozier - Going Back To My Roots
TTITLE3=Barrino Brothers - I Shall Not Be Moved
TTITLE4=Linda Carr and The Love Squad - Highwire
TTITLE5=Fessor Funk and His Queen's 8th Street Funk Band - Love Is Such 
TTITLE5=A Good Thing
TTITLE6=The Dynamics - She's For Real
TTITLE7=Willie and The Mighty Magnificents - Funky 8 Corners 
TTITLE8=Eloise Laws - Love Factory
TTITLE9=Brother To Brother - In The Bottle
TTITLE10=Fatback Band - Goin' To See My Baby
TTITLE11=Shalamar - Take That To The Bank
TTITLE12=Chocolate Syrup - You've Got A Lot To Give
TTITLE13=The Moments - I've Got The Need
TTITLE14=The Whispers - I've Got A Feeling
TTITLE15=New York City - Reach Out
TTITLE16=Chairman Of The Board - I'm On My Way To A Better Place
TTITLE17=The Carstairs - It Really Hurts Me Girl
EXTD=
EXTT0=
EXTT1=
EXTT2=
EXTT3=
EXTT4=
EXTT5=
EXTT6=
EXTT7=
EXTT8=
EXTT9=
EXTT10=
EXTT11=
EXTT12=
EXTT13=
EXTT14=
EXTT15=
EXTT16=
EXTT17=
PLAYORDER=
